# AST/ASF file generated using VICON BodyLanguage
# -----------------------------------------------
:version 1.10
:name VICON
:units
  mass 1.0
  length 0.45
  angle deg
:documentation
   .ast/.asf automatically generated from VICON data using
   VICON BodyBuilder and BodyLanguage model FoxedUp or BRILLIANT.MOD
:root
   order TX TY TZ RX RY RZ
   axis XYZ
   position 0 0 0  
   orientation 0 0 0 
:bonedata
  begin
     id 1 
     name lhipjoint
     direction 0.643272 -0.706573 0.294883 
     length 2.58915 
     axis 0 0 0  XYZ
  end
  begin
     id 2 
     name lfemur
     direction 0.34202 -0.939693 0  
     length 7.06802  
     axis 0 0 20  XYZ
    dof rx ry rz
    limits (-160.0 20.0)
           (-70.0 70.0)
           (-60.0 70.0)
  end
  begin
     id 3 
     name ltibia
     direction 0.34202 -0.939693 0   
     length 7.94147   
     axis 0 0 20   XYZ
    dof rx
    limits (-10.0 170.0)
  end
  begin
     id 4 
     name lfoot
     direction 0.0435058 -0.119531 0.991877   
     length 1.8399   
     axis -90 7.62852e-016 20   XYZ
    dof rx rz
    limits (-45.0 90.0)
           (-70.0 20.0)
  end
  begin
     id 5 
     name ltoes
     direction 1.53505e-011 -4.22157e-011 1   
     length 0.934412   
     axis -90 7.62852e-016 20   XYZ
    dof rx
    limits (-90.0 20.0)
  end
  begin
     id 6 
     name rhipjoint
     direction -0.636801 -0.711547 0.296959   
     length 2.57105  
     axis 0 0 0  XYZ 
  end
  begin
     id 7 
     name rfemur
     direction -0.34202 -0.939693 0   
     length 7.03285   
     axis 0 0 -20   XYZ
    dof rx ry rz
    limits (-160.0 20.0)
           (-70.0 70.0)
           (-70.0 60.0)
  end
  begin
     id 8 
     name rtibia
     direction -0.34202 -0.939693 0   
     length 7.99111   
     axis 0 0 -20   XYZ
    dof rx
    limits (-10.0 170.0)
 end
 begin
     id 9 
     name rfoot
     direction -0.0783088 -0.215152 0.973436   
     length 1.98785  
     axis -90 -7.62852e-016 -20   XYZ
    dof rx rz
    limits (-45.0 90.0)
           (-20.0 70.0)
  end
  begin
     id 10 
     name rtoes
     direction -1.53606e-011 -4.21943e-011 1   
     length 1.001   
     axis -90 -7.62852e-016 -20   XYZ
    dof rx
    limits (-90.0 20.0)
  end
  begin
     id 11 
     name lowerback
     direction 0.00141527 0.998403 -0.0564763   
     length 2.30486   
     axis 0 0 0   XYZ
    dof rx ry rz
    limits (-20.0 45.0)
           (-30.0 30.0)
           (-30.0 30.0)
  end
  begin
     id 12 
     name upperback
     direction 0.0125137 0.999915 0.00361315   
     length 2.30697   
     axis 0 0 0   XYZ
    dof rx ry rz
    limits (-20.0 45.0)
           (-30.0 30.0)
           (-30.0 30.0)
  end
  begin
     id 13 
     name thorax
     direction 0.0136417 0.999471 0.0295116   
     length 2.31005   
     axis 0 0 0   XYZ
    dof rx ry rz
    limits (-20.0 45.0)
           (-30.0 30.0)
           (-30.0 30.0)
  end
  begin
     id 14 
     name lowerneck
     direction 0.0766806 0.997047 0.00422047   
     length 1.68825   
     axis 0 0 0   XYZ
    dof rx ry rz
    limits (-20.0 45.0)
           (-30.0 30.0)
           (-30.0 30.0)
  end
  begin
     id 15 
     name upperneck
     direction -0.143512 0.985106 -0.0947088   
     length 1.69772   
     axis 0 0 0   XYZ
    dof rx ry rz
    limits (-20.0 45.0)
           (-30.0 30.0)
           (-30.0 30.0)
  end
  begin
     id 16
     name head
     direction -0.0539128 0.997849 -0.0372864  
     length 1.71187  
     axis 0 0 0   XYZ
    dof rx ry rz
    limits (-20.0 45.0)
           (-30.0 30.0)
           (-30.0 30.0)
  end
  begin
     id 17 
     name lclavicle
     direction 0.978251 0.207416 -0.00165765  
     length 3.35399  
     axis 0 0 0   XYZ
    dof ry rz
    limits (-20.0 10.0)
           (0.0 20.0)
  end
  begin
     id 18 
     name lhumerus
     direction 1 -4.48966e-011 -1.32191e-028   
     length 5.70706   
     axis 180 -30 -90   XYZ
    dof rx ry rz
    limits (-60.0 90.0)
           (-90.0 90.0)
           (-90.0 90.0)
  end
  begin
     id 19
     name lradius
     direction 1 -4.48976e-011 9.36106e-027   
     length 3.33243   
     axis 180 -30 -90   XYZ
    dof rx
    limits (-10.0 170.0)
  end
  begin
     id 20
     name lwrist
     direction 1 -4.48976e-011 1.1555e-026   
     length 1.66621   
     axis -5.7412e-015 90 90   XYZ
    dof ry
    limits (-180.0 0.0)
 end
  begin
     id 21 
     name lhand
     direction 1 -4.48939e-011 2.31113e-026   
     length 0.792687   
     axis -1.47463e-014 90 90   XYZ
    dof rx rz
    limits (-90.0 90.0)
           (-45.0 45.0)
  end
  begin
     id 22 
     name lfingers
     direction 1 -4.48866e-011 4.62274e-026   
     length 0.639085   
     axis -2.94925e-014 90 90   XYZ
    dof rx
    limits (0.0 90.0)
  end
  begin
     id 23
     name lthumb
     direction 0.707107 -6.34847e-011 0.707107   
     length 0.917601   
     axis -90 45 -6.68868e-015   XYZ
    dof rx rz
    limits (-45.0 45.0)
           (-45.0 45.0)
  end
  begin
     id 24 
     name rclavicle
     direction -0.981813 0.185514 0.0403428   
     length 3.47271  
     axis 0 0 0   XYZ 
    dof ry rz
    limits (-10.0 20.0)
           (-20.0 0.0)
  end
  begin
     id 25 
     name rhumerus
     direction -1 -4.48972e-011 -6.58544e-029  
     length 5.88176   
     axis 180 30 90   XYZ
    dof rx ry rz
    limits (-90.0 60.0)
           (-90.0 90.0)
           (-90.0 90.0)
  end
  begin
     id 26 
     name rradius
     direction -1 -4.48964e-011 8.36306e-027   
     length 3.28156   
     axis 180 30 90   XYZ
    dof rx
    limits (-10.0 170.0)
  end
  begin
     id 27 
     name rwrist
     direction -1 -4.48903e-011 1.15562e-026   
     length 1.64078   
     axis -5.7412e-015 -90 -90   XYZ
    dof ry
    limits (-180.0 0.0)
  end
  begin
     id 28
     name rhand
     direction -1 -4.49055e-011 2.31074e-026   
     length 0.863125   
     axis -1.47463e-014 -90 -90   XYZ
    dof rx rz
    limits (-90.0 90.0)
           (-45.0 45.0)
  end
  begin
     id 29
     name rfingers
     direction -1 -4.48994e-011 4.62188e-026   
     length 0.695873   
     axis -2.94925e-014 -90 -90   XYZ
    dof rx
    limits (0.0 90.0)
  end
  begin
     id 30
     name rthumb
     direction -0.707107 -6.35058e-011 0.707107   
     length 0.999139   
     axis -90 -45 6.68868e-015   XYZ
    dof rx rz
    limits (-45.0 45.0)
           (-45.0 45.0)
  end
:hierarchy
  begin
    root lhipjoint rhipjoint lowerback
    lhipjoint lfemur
    lfemur ltibia
    ltibia lfoot
    lfoot ltoes
    rhipjoint rfemur
    rfemur rtibia
    rtibia rfoot
    rfoot rtoes
    lowerback upperback
    upperback thorax
    thorax lowerneck lclavicle rclavicle
    lowerneck upperneck
    upperneck head
    lclavicle lhumerus
    lhumerus lradius
    lradius lwrist
    lwrist lhand lthumb
    lhand lfingers
    rclavicle rhumerus
    rhumerus rradius
    rradius rwrist
    rwrist rhand rthumb
    rhand rfingers
  end

#!OML:ASF \\Waltz\H\Terrain\Patient Classification 1\Animal2\Wednesday\Animal2.ASF
:FULLY-SPECIFIED
:DEGREES
1091
root 0.261113 16.9808 -2.8257 -3.47683 10.563 -10.9075
lowerback 5.02128 -2.01134 3.60765
upperback -0.997232 -2.25671 5.03867
thorax -3.7904 -1.14167 3.38672
lowerneck -3.21845 -10.6301 8.07939
upperneck 3.63297 -14.3641 -6.01182
head 0.631508 -7.19194 -3.39279
rclavicle 2.30155e-014 -3.47873e-014
rhumerus 8.17519 47.6263 -59.3588
rradius 97.4153
rwrist -16.6772
rhand -17.2465 19.9635
rfingers 7.12502
rthumb 8.99747 -9.82465
lclavicle 2.30155e-014 -3.47873e-014
lhumerus 20.945 14.2467 5.58064
lradius 93.2779
lwrist 5.71873
lhand -49.2482 18.0566
lfingers 7.12502
lthumb -21.8674 46.841
rfemur -5.95034 10.9563 16.5223
rtibia 36.9416
rfoot -19.0908 2.56143
rtoes 21.2069
lfemur -19.9788 -6.70293 -9.42567
ltibia 52.3784
lfoot -28.1003 -5.08792
ltoes -14.4886
1092
root 0.226829 16.9735 -2.79992 -3.58064 10.6115 -11.4767
lowerback 4.9582 -1.99726 3.80152
upperback -1.02119 -2.21979 5.25482
thorax -3.78068 -1.1248 3.49973
lowerneck -3.15885 -10.9274 7.93696
upperneck 3.76392 -14.7518 -5.86009
head 0.657541 -7.38223 -3.31253
rclavicle -4.13162e-014 2.00773e-014
rhumerus 8.16461 47.8205 -58.8228
rradius 97.3269
rwrist -16.4147
rhand -16.9877 20.5868
rfingers 7.12502
rthumb 9.2472 -9.19038
lclavicle -4.13162e-014 2.00773e-014
lhumerus 20.7929 14.5895 5.16977
lradius 93.6214
lwrist 6.14411
lhand -49.5251 18.7418
lfingers 7.12502
lthumb -22.1332 47.4949
rfemur -5.15161 10.7203 16.92
rtibia 35.425
rfoot -18.679 4.26216
rtoes 19.2818
lfemur -20.0173 -6.95143 -8.65979
ltibia 52.6183
lfoot -28.123 -5.28178
ltoes -13.7058
1093
root 0.188053 16.9617 -2.7719 -3.68248 10.7048 -12.0652
lowerback 4.80144 -2.02713 3.95143
upperback -0.71663 -2.27185 5.54696
thorax -3.36865 -1.14912 3.70799
lowerneck -4.18155 -11.0664 8.03561
upperneck 3.88184 -15.0191 -5.75293
head 0.854874 -7.52162 -3.37212
rclavicle 2.91406e-014 -6.69904e-014
rhumerus 9.31123 47.7262 -57.3443
rradius 97.4165
rwrist -16.2768
rhand -16.7041 20.8301
rfingers 7.12502
rthumb 9.52089 -8.93483
lclavicle 2.91406e-014 -6.69904e-014
lhumerus 20.5899 15.6203 4.78994
lradius 93.7341
lwrist 6.54332
lhand -49.8233 19.1557
lfingers 7.12502
lthumb -22.4195 47.8746
rfemur -4.37669 10.2625 17.3786
rtibia 34.0337
rfoot -18.2787 6.35909
rtoes 18.7829
lfemur -20.1153 -7.17691 -7.83762
ltibia 52.9419
lfoot -28.2676 -5.52555
ltoes -12.8022
1094
root 0.144248 16.9536 -2.74435 -3.63329 10.743 -12.5692
lowerback 4.58802 -2.08501 4.05447
upperback -0.930253 -2.33936 5.71209
thorax -3.466 -1.18367 3.82688
lowerneck -2.94726 -11.3648 7.7652
upperneck 3.42712 -15.3305 -5.33946
head 0.527862 -7.6651 -3.07241
rclavicle 1.28154e-014 -3.97569e-016
rhumerus 9.26572 48.2698 -56.9264
rradius 97.5447
rwrist -16.0566
rhand -16.8389 20.7682
rfingers 7.12502
rthumb 9.39079 -9.00256
lclavicle 1.28154e-014 -3.97569e-016
lhumerus 20.2815 15.7136 4.12409
lradius 93.8608
lwrist 7.04511
lhand -49.9245 19.6571
lfingers 7.12502
lthumb -22.5166 48.3643
rfemur -3.82197 9.70068 17.7764
rtibia 32.7439
rfoot -17.7393 7.95015
rtoes 19.5502
lfemur -20.3818 -7.28438 -7.07573
ltibia 53.3026
lfoot -28.3997 -5.80425
ltoes -11.6902
1095
root 0.105029 16.955 -2.71864 -3.60271 10.7844 -13.0122
lowerback 4.55787 -2.12542 4.13115
upperback -0.987572 -2.38118 5.8826
thorax -3.50372 -1.20436 3.96722
lowerneck -2.71839 -11.5453 7.77562
upperneck 3.28701 -15.5591 -5.23741
head 0.436003 -7.77686 -3.0118
rclavicle -3.85456e-014 2.78299e-014
rhumerus 9.80146 48.5832 -56.1311
rradius 97.6357
rwrist -16.1103
rhand -17.0861 20.5036
rfingers 7.12502
rthumb 9.15225 -9.2778
lclavicle -3.85456e-014 2.78299e-014
lhumerus 20.1024 16.1439 3.67848
lradius 93.9267
lwrist 7.18147
lhand -49.7848 19.8914
lfingers 7.12502
lthumb -22.3826 48.6147
rfemur -3.2502 8.95533 18.1291
rtibia 31.5235
rfoot -17.4693 8.55792
rtoes 18.073
lfemur -20.6289 -7.40835 -6.42866
ltibia 53.6378
lfoot -28.6646 -4.75926
ltoes -15.4106
1096
root 0.0654517 16.9632 -2.69324 -3.59403 10.9674 -13.2742
lowerback 4.54967 -2.14168 3.99354
upperback -0.742021 -2.42458 6.03686
thorax -3.22969 -1.22127 4.19984
lowerneck -3.5749 -11.6463 8.13105
upperneck 3.11503 -15.7754 -5.24909
head 0.483016 -7.89216 -3.12455
rclavicle 2.61247e-014 9.34288e-015
rhumerus 10.959 48.3066 -54.8008
rradius 97.6599
rwrist -16.1763
rhand -17.0946 20.2227
rfingers 7.12502
rthumb 9.14409 -9.55908
lclavicle 2.61247e-014 9.34288e-015
lhumerus 20.2302 17.2151 3.61763
lradius 93.8498
lwrist 7.21433
lhand -49.826 19.3846
lfingers 7.12502
lthumb -22.4221 48.1031
rfemur -2.633 8.07623 18.3097
rtibia 30.3662
rfoot -17.2079 9.48122
rtoes 17.4637
lfemur -20.8642 -7.69756 -6.00246
ltibia 53.9429
lfoot -28.7366 -4.36435
ltoes -16.3476
1097
root 0.020675 16.971 -2.66523 -3.72615 11.1131 -13.7136
lowerback 4.60413 -2.19332 4.00153
upperback -0.739374 -2.48399 6.18626
thorax -3.24927 -1.24966 4.35983
lowerneck -3.20785 -11.8482 8.05588
upperneck 2.83464 -16.0227 -4.92625
head 0.347578 -8.01097 -2.96213
rclavicle -7.54139e-015 5.12864e-014
rhumerus 11.4121 48.3739 -54.018
rradius 97.5717
rwrist -15.9855
rhand -16.8233 20.2901
rfingers 7.12502
rthumb 9.40581 -9.48001
lclavicle -7.54139e-015 5.12864e-014
lhumerus 20.1784 17.708 3.30353
lradius 93.9395
lwrist 7.7229
lhand -50.1902 19.3849
lfingers 7.12502
lthumb -22.7716 48.0609
rfemur -1.9343 7.23834 18.7476
rtibia 29.2407
rfoot -16.4902 11.032
rtoes 21.4229
lfemur -20.9961 -8.02259 -5.34923
ltibia 54.2579
lfoot -28.6586 -4.83793
ltoes -14.0704
1098
root -0.0227549 16.9694 -2.63846 -4.02685 11.1283 -14.6287
lowerback 4.78479 -2.23606 4.54616
upperback -0.753675 -2.48132 6.45575
thorax -3.37931 -1.25517 4.34917
lowerneck -3.40417 -11.9907 7.96372
upperneck 3.30208 -16.2202 -4.86076
head 0.531434 -8.10417 -2.96012
rclavicle 2.60315e-014 -2.70347e-014
rhumerus 11.958 48.5656 -53.1635
rradius 97.4662
rwrist -15.9572
rhand -16.6166 20.4195
rfingers 7.12502
rthumb 9.60531 -9.34155
lclavicle 2.60315e-014 -2.70347e-014
lhumerus 19.9571 18.0439 2.84277
lradius 94.0996
lwrist 8.30883
lhand -50.1491 19.9095
lfingers 7.12502
lthumb -22.7322 48.5903
rfemur -1.16059 6.23412 19.7219
rtibia 28.1485
rfoot -15.6012 12.285
rtoes 25.2386
lfemur -21.0662 -8.18034 -4.15343
ltibia 54.6601
lfoot -28.5275 -5.51822
ltoes -11.7711
1099
root -0.0627595 16.9677 -2.61575 -4.20279 11.1964 -15.5848
lowerback 4.75244 -2.28785 5.17183
upperback -0.861506 -2.49434 6.75178
thorax -3.48895 -1.27031 4.31677
lowerneck -3.35561 -12.1088 7.77518
upperneck 3.73846 -16.3618 -4.85157
head 0.670523 -8.17 -2.94247
rclavicle -6.30831e-015 1.77912e-014
rhumerus 12.1661 48.7984 -52.5293
rradius 97.4648
rwrist -15.9999
rhand -16.6888 20.3022
rfingers 7.12502
rthumb 9.53558 -9.46201
lclavicle -6.30831e-015 1.77912e-014
lhumerus 19.7665 18.2975 2.532
lradius 94.2028
lwrist 8.72238
lhand -49.5689 20.094
lfingers 7.12502
lthumb -22.1753 48.8421
rfemur -0.61381 5.05441 20.7084
rtibia 27.1618
rfoot -14.8335 13.2231
rtoes 27.0355
lfemur -21.3414 -8.22337 -2.91366
ltibia 55.1177
lfoot -28.2804 -5.92221
ltoes -11.3373
